<svg xmlns="http://www.w3.org/2000/svg" fill="#000000" viewBox="0 0 50 50" width="50px" height="50px"><path d="M 35.199219 43.898438 C 32.699219 43.5 26 41.601563 26 38.101563 L 26 32 C 33.398438 31.5 39 26 39 19 C 39 10.898438 36.101563 3 35.898438 2.601563 L 35.699219 2 L 14.300781 2 L 14.101563 2.601563 C 13.898438 3 11 10.898438 11 19 C 11 26 16.601563 31.5 24 32 L 24 38.199219 C 24 41.699219 17.398438 43.601563 14.800781 44 C 13.398438 44.300781 12 45.5 12 47 C 12 47.601563 12.398438 48 13 48 L 37 48 C 37.601563 48 38 47.601563 38 47 C 38 46.898438 38 46.800781 38 46.699219 C 37.800781 45.300781 36.5 44.300781 35.199219 43.898438 Z M 15.699219 4 L 34.300781 4 C 34.699219 5.199219 35.5 7.800781 36.199219 11 C 36.199219 11 36.199219 11 36.101563 11 L 13.898438 11 C 14.5 7.800781 15.300781 5.199219 15.699219 4 Z"></path></svg>