<svg xmlns="http://www.w3.org/2000/svg" xmlns:xlink="http://www.w3.org/1999/xlink" id="Capa_1" x="0px" y="0px" viewBox="0 0 104.8 102.9" style="enable-background:new 0 0 104.8 102.9;" xml:space="preserve"><style type="text/css">	.st0{opacity:0.9;}	.st1{fill:#FFFCF7;}</style><g class="st0">	<path class="st1" d="M53.3,12.8c1.9,0.4,3.3,1.5,4.1,3.3c0.1,0.2,0.5,0.4,0.8,0.4c5.9,0.5,11.7,1.6,17.2,3.9   c4.1,1.7,7.8,3.8,10.8,7.2c2.1,2.5,3.2,5.3,3.2,8.6c0,5.8,0,11.6,0,17.4c0,0.8,0.2,1.3,1,1.7c2.6,1.5,5,3.3,7.1,5.6   c6.2,6.8,6,15.1-0.5,21.7c-3.7,3.8-8.3,6.3-13.1,8.3c-6.6,2.7-13.5,4.2-20.6,4.9c-7.3,0.8-14.5,0.8-21.8,0   c-8.9-1-17.6-3.1-25.6-7.4c-3.4-1.9-6.6-4.1-9.1-7.2c-5.2-6.3-5.1-13.6,0.2-19.8c2.2-2.6,4.9-4.6,7.8-6.3c0.6-0.3,0.7-0.7,0.7-1.3   c0-5.7,0.1-11.4,0-17.2c-0.1-4.4,1.6-7.9,4.8-10.8c3.9-3.6,8.6-5.7,13.7-7.2c4.2-1.3,8.4-2,12.8-2.3c0.3,0,0.6-0.3,0.8-0.6   c0.7-0.7,1.2-1.6,1.9-2.2c0.4-0.4,0.6-0.6,0.6-1.1c0-2.7,1.2-4.7,3.6-6c1.1-0.6,2-0.3,2.5,0.6c0.5,0.9,0.1,1.8-1,2.4   C53.8,10.3,53.2,11.3,53.3,12.8z M18.8,35.6c0,1.4,0.4,2.8,1.1,4c1.1,1.9,2.7,3.4,4.5,4.7c3.8,2.7,8,4.3,12.5,5.4   c0.6,0.2,1,0.1,1.5-0.3c4.2-3.3,8.4-6.6,12.5-9.9c1.3-1,1.8-1,3,0c4.1,3.4,8.2,6.7,12.4,10c0.3,0.2,0.8,0.4,1.1,0.3   c4-0.9,7.8-2.3,11.3-4.4c2.1-1.3,4.1-2.8,5.6-4.8c2.4-3.4,2.4-6.9-0.1-10.2c-1.3-1.7-2.9-3.1-4.7-4.2c-6.5-4.1-13.8-5.7-21.4-6.3   c-0.2,0-0.6,0.3-0.8,0.6c-1.1,2-2.7,3.1-4.9,3c-2.2,0-3.8-1.1-4.8-3c-0.2-0.5-0.5-0.7-1.1-0.6c-5.3,0.5-10.5,1.5-15.5,3.5   c-3.5,1.4-6.7,3.1-9.3,5.8C20,31,18.9,33,18.8,35.6z M15.5,58.7c-3.8,2.4-7,5.1-8.6,9.3C6,70.4,6,72.9,7,75.3   c0.9,2.3,2.4,4.2,4.2,5.9c3.6,3.3,7.9,5.5,12.4,7.2c7.2,2.7,14.7,4.1,22.4,4.6c9.9,0.7,19.6-0.1,29.2-2.7   c5.7-1.6,11.2-3.7,16.1-7.2c2.3-1.6,4.3-3.5,5.7-5.9c2.2-3.7,2.2-7.5,0-11.2c-1.6-2.7-3.9-4.8-6.4-6.5c-0.4-0.2-0.7-0.5-1.2-0.8   c0,2.5,0,4.8,0,7.1c0,2.3-0.6,4.4-1.8,6.3c-1.2,2-2.8,3.6-4.7,5c-4.7,3.5-10,5.4-15.6,6.7c-0.9,0.2-1.5,0-2.2-0.5   c-3.5-2.9-7-5.8-10.6-8.6c-0.7-0.6-1.4-1.1-2.1-1.7c-4.3,3.4-8.6,6.8-12.9,10.2c-0.7,0.6-1.4,0.8-2.3,0.5c-1.3-0.4-2.6-0.6-3.8-1   c-4.8-1.5-9.3-3.5-13.1-6.9c-3.2-2.9-5-6.4-4.8-10.9C15.6,63,15.5,60.9,15.5,58.7z M86,43.8c-2.8,3.1-6.1,5.1-9.7,6.6   c-2.5,1-5,1.7-7.6,2.6c-0.4,0.1-0.7,0.2-0.7,0.7c0,4.8,0,9.5,0,14.3c0,0.3,0.1,0.6,0.1,0.9c0.1,1,0.9,1.7,1.8,1.6   c1-0.1,1.7-0.8,1.7-1.8c0-2.6,0.1-5.2,0.1-7.8c0-1.3,0.4-2.4,1.3-3.4c1.5-1.6,3.4-2.1,5.5-1.4c2.1,0.7,3.2,2.2,3.4,4.5   c0.1,1.2,0.9,1.9,2.1,1.8c1.2-0.1,1.9-0.8,1.9-2c0-1.2,0-2.5,0-3.7C86,52.4,86,48.2,86,43.8z M19.6,69.6c4,6.3,10.3,8.5,16.8,10.6   c0-6.4,0-12.7,0-19.1c-0.2,0.1-0.4,0.1-0.6,0.2c-3.6,0.9-6.6-1.8-6.6-4.7c0-1-0.8-1.7-1.8-1.7c-1,0-1.7,0.7-1.7,1.8   c0,2.7-0.1,5.3-0.1,8c-0.1,2.3-1.6,4.2-3.9,4.7C21,69.5,20.4,69.5,19.6,69.6z M86,65.3c-0.1,0-0.1,0-0.1,0   c-4.2,0.8-6.4-0.7-7.2-4.9c-0.1-0.5-0.5-1-1-1.2c-1.2-0.6-2.5,0.2-2.5,1.7c0,2.6,0,5.2-0.1,7.7c-0.1,3.3-3,5.6-6.3,4.9   c-0.2,0-0.4-0.1-0.7-0.1c0,2.3,0,4.5,0,6.8c0.3,0,0.5-0.1,0.7-0.1c3-0.9,6-1.9,8.7-3.4c2.4-1.3,4.7-2.9,6.4-5.1   C85.4,69.7,86.2,67.7,86,65.3z M39.8,65.3c0.2-0.1,0.3-0.2,0.4-0.3c3.4-2.7,6.7-5.3,10-8c0.3-0.2,0.5-0.8,0.5-1.2   c0-3.7,0-7.4,0-11.1c0-0.2,0-0.5,0-0.8c-0.2,0.1-0.3,0.2-0.4,0.3c-3.4,2.7-6.8,5.3-10.1,8c-0.2,0.2-0.4,0.6-0.4,1   c0,3.8,0,7.6,0,11.3C39.7,64.7,39.8,64.9,39.8,65.3z M54.1,43.9c0,4,0,7.8,0,11.6c0,0.6,0.2,1,0.7,1.4c3.1,2.5,6.1,5,9.2,7.5   c0.2,0.2,0.5,0.4,0.9,0.7c0-0.5,0-0.7,0-1c0-3.6,0-7.2,0-10.7c0-0.6-0.2-1-0.6-1.3c-3.1-2.5-6.2-5-9.3-7.5   C54.7,44.3,54.4,44.2,54.1,43.9z M18.8,43.8c0,0.4,0,0.6,0,0.8c0,4.8,0,9.6,0,14.3c0,1.8,0,3.7,0,5.5c0,1.1,0.7,1.8,1.8,1.7   c1,0,1.7-0.7,1.7-1.9c0-2.5,0-5.1,0.1-7.7c0-1.6,0.6-3,1.9-4c1.6-1.2,3.3-1.5,5.1-0.7c1.8,0.8,2.8,2.2,3,4.2c0.1,1.3,0.9,2,2.1,2   c1.2,0,1.9-0.8,1.9-2.1c0-1,0-2,0-3C29.9,51.3,23.7,48.9,18.8,43.8z M39.7,78.7c0.2-0.1,0.3-0.1,0.3-0.1c3.5-2.7,6.9-5.4,10.3-8.2   c0.2-0.2,0.4-0.6,0.4-1c0-2,0-4,0-6c0-0.8,0-1.6,0-2.5c-0.2,0.1-0.3,0.1-0.3,0.1c-3.4,2.7-6.9,5.5-10.3,8.2   c-0.2,0.1-0.3,0.4-0.3,0.6C39.7,72.8,39.7,75.7,39.7,78.7z M64.8,78.9c0-3.2,0-6.1,0-9c0-0.3-0.2-0.6-0.5-0.8   c-3.2-2.6-6.4-5.2-9.6-7.8c-0.2-0.1-0.4-0.2-0.6-0.4c0,3.1,0,6,0,8.9c0,0.3,0.3,0.7,0.6,0.9c1.6,1.4,3.3,2.7,4.9,4   C61.2,76,62.9,77.3,64.8,78.9z M52.4,16.1c-1.2,0-2.1,1-2.1,2.2c0,1.1,1,2.1,2.1,2c1.2,0,2.1-1,2.1-2.2   C54.5,17,53.5,16.1,52.4,16.1z"></path>	<path class="st1" d="M68.5,34.8c-0.7-2.9,0-5.3,2.3-7.1c0.3-0.2,0.7-0.4,1.1-0.5c0.8-0.1,1.4,0.2,1.7,1c0.3,0.8,0.1,1.5-0.6,2   c-1.1,0.8-1.6,1.9-1.4,3.3c0.1,0.7,0.4,1.3,1.2,1.7c2.3,1.1,3.4,3.6,2.8,6c-0.5,2.3-2.7,4.1-5.1,4.1c-2.5,0.1-4.7-1.5-5.4-3.9   c-0.7-2.4,0.4-4.9,2.6-6.1C68,35.1,68.2,35,68.5,34.8z M70.3,42c1.2,0,2.1-0.9,2.1-2.1c0-1.1-0.9-2.1-2.1-2.1   c-1.2,0-2.1,0.9-2.1,2.1C68.3,41,69.2,42,70.3,42z"></path>	<path class="st1" d="M34.8,40.4c-2.5,0-4.7-1.7-5.2-4.1c-0.6-2.5,0.6-5,2.9-6.1c0.6-0.3,0.8-0.6,0.8-1.3c0.2-2.6,1.5-4.4,3.8-5.6   c0.9-0.5,1.9-0.1,2.3,0.7c0.4,0.9,0.1,1.7-0.9,2.2c-1.1,0.5-1.7,1.3-1.9,2.5c-0.1,0.6,0,1,0.7,1.4c2.3,1.1,3.4,3.6,2.8,6   C39.4,38.7,37.3,40.4,34.8,40.4z M34.7,37.1c1.2,0,2.2-0.9,2.1-2.1c0-1.1-0.9-2.1-2.1-2.1c-1.2,0-2.1,0.8-2.1,2   C32.7,36.1,33.6,37,34.7,37.1z"></path>	<path class="st1" d="M32.3,70.1c1.2-1.6,2.5-1.5,3.5,0.2c1,1.7,0.5,3.9-1,5.1c-1.5,1.2-3.7,1.1-5.2-0.3c-1.5-1.4-1.7-3.6-0.5-5.2   C30,68.5,31.3,68.5,32.3,70.1z M32.3,70.9c-0.2,0.7-1.1,1.2-0.3,1.9c0.1,0.1,0.7,0.1,0.8-0.1C33.4,71.9,32.5,71.6,32.3,70.9z"></path></g></svg>