<svg xmlns="http://www.w3.org/2000/svg" xmlns:xlink="http://www.w3.org/1999/xlink" id="Capa_1" x="0px" y="0px" viewBox="0 0 104.8 102.9" style="enable-background:new 0 0 104.8 102.9;" xml:space="preserve"><style type="text/css">	.st0{opacity:0.9;}	.st1{fill:#FFFCF7;}</style><g class="st0">	<path class="st1" d="M22.3,72.8c-2.5,7.7-4.9,15.4-7.4,23.2c1.9,0.6,3.8,1.2,5.7,1.9c0.6,0.2,1.2,0.4,1.8,0.6   c1.1,0.4,1.5,0.9,1.3,1.7c-0.2,0.8-0.9,1.1-2,0.7c-4.9-1.6-9.9-3.2-14.8-4.8c-0.9-0.3-1.9-0.6-2.8-0.9c-0.7-0.3-1.2-0.8-0.9-1.6   c0.3-0.8,0.9-1,1.7-0.8c2.5,0.8,5.1,1.6,7.8,2.5c2.5-7.7,5-15.4,7.4-23.1c-4.2-2.7-5.4-7-5.9-11.4c-0.9-7.3,0.2-14.5,2.3-21.5   c2.2-7.1,4.8-14,7.9-20.8c0.3-0.7,0.7-1.3,1-2c0.4-0.9,1.1-1.1,2-0.8c4.8,1.6,9.7,3.1,14.5,4.7c2.5,0.8,5,1.6,7.4,2.4   c0.9,0.3,1.4,0.8,1.2,1.8c-2,10.7-4.5,21.4-9.3,31.3c-2.5,5.1-5.5,9.8-9.9,13.6c-2.1,1.8-4.5,3.2-7.3,3.4   C23.4,72.9,22.9,72.8,22.3,72.8z M43.9,41.6c-3.4-1.9-6.2-4.5-8.9-7.1c-0.8-0.8-1.6-1.5-2.5-2.2c-2.8-2.2-5.9-3.8-9.4-5   c-1.1,3-2.2,6-3.3,9c-2.5,7.1-4,14.4-3.6,22c0.1,2.8,0.6,5.6,1.9,8.2c1.9,3.8,5.1,4.8,8.8,2.8c2.1-1.1,3.9-2.7,5.4-4.5   C38.2,58.1,41.5,50.2,43.9,41.6z M24,25.1c6.1,1.9,10.8,5.6,15.1,9.9c1.4,1.4,3.2,2.5,4.8,3.8c0.2,0.2,0.5,0.2,0.9,0.4   c1-4.6,2-9,3.1-13.5c0.2-0.8-0.2-1-0.9-1.2c-6.2-2-12.5-4-18.7-6c-0.3-0.1-0.7-0.2-1.1-0.4C26.1,20.5,25.1,22.7,24,25.1z"></path>	<path class="st1" d="M84.9,72.1c2.5,7.7,4.9,15.4,7.4,23.1c2.4-0.8,4.8-1.5,7.1-2.3c0.3-0.1,0.6-0.2,0.9-0.3   c0.7-0.2,1.3,0.1,1.5,0.8c0.2,0.7,0,1.2-0.7,1.5c-0.2,0.1-0.5,0.2-0.8,0.3c-5.6,1.8-11.3,3.7-16.9,5.5c-0.2,0.1-0.4,0.1-0.6,0.2   c-0.8,0.2-1.3-0.1-1.6-0.8c-0.2-0.7,0.1-1.3,0.8-1.5c1.9-0.6,3.8-1.2,5.7-1.9c0.7-0.2,1.4-0.5,2.2-0.7c-2.5-7.7-5-15.4-7.4-23.1   c-6,0.2-9.7-3.6-13.1-7.8c-4.2-5.2-7.1-11.1-9.2-17.4c-2.4-7.3-4.4-14.7-5.7-22.3c-0.4-2-0.2-2.3,1.7-2.9c7-2.3,14-4.5,21-6.8   c1.5-0.5,1.9-0.4,2.5,1c4.6,9.9,8.8,20,10.7,30.8c1,5.9,1.2,11.8-0.5,17.6C88.9,68.4,87.6,70.1,84.9,72.1z M81.7,27.4   c-0.4,0.1-0.7,0.2-0.9,0.3c-4.1,1.5-7.8,3.8-10.9,6.8c-2.6,2.5-5.2,5-8.4,6.8c-0.2,0.1-0.4,0.7-0.3,1c1.2,3.5,2.3,7.1,3.8,10.5   c2.1,5,4.9,9.6,8.8,13.4c1.6,1.5,3.3,2.9,5.3,3.6c2.8,1,5.2,0.3,6.8-2.2c0.7-1.1,1.3-2.3,1.6-3.5c1.3-4.3,1.2-8.7,0.8-13.2   C87.6,42.8,84.7,35.1,81.7,27.4z M77.8,18.1c-0.4,0.1-0.7,0.2-1,0.3c-5.6,1.8-11.2,3.6-16.7,5.4c-1,0.3-2.4,0.4-2.8,1.1   c-0.4,0.7,0.1,2,0.3,3.1c0.9,3.7,1.8,7.4,2.7,11.2c0.5-0.3,0.9-0.5,1.3-0.8c2.2-1.8,4.4-3.6,6.4-5.5c3.4-3.2,7.1-5.7,11.5-7.3   c0.4-0.2,0.9-0.3,1.4-0.6C79.8,22.7,78.8,20.5,77.8,18.1z"></path>	<path class="st1" d="M45.3,79.1c0-1.3,0.4-2.9-0.1-3.9c-0.5-1-2-1.6-3.1-2.3c-0.9-0.6-1.8-1.2-2.6-1.9c-0.4-0.3-0.8-0.9-0.7-1.3   c0.1-0.4,0.6-0.9,1.1-1.1c1.9-0.7,3.8-1.3,5.7-1.8c1-0.3,1.4-0.8,1.6-1.7c0.5-1.9,1.1-3.7,1.7-5.5c0.2-0.5,0.7-1.1,1.2-1.2   c0.4-0.1,1.1,0.4,1.4,0.8c1.3,1.7,2.4,3.4,3.7,5.1c0.3,0.3,0.8,0.6,1.2,0.6c2.1,0,4.3-0.1,6.4,0c0.5,0,1.2,0.3,1.4,0.7   c0.2,0.3,0,1.1-0.3,1.5c-1.2,1.7-2.5,3.4-3.7,5c-0.4,0.5-0.5,1-0.3,1.6c0.7,1.8,1.3,3.6,1.9,5.5c0.2,0.7,0.6,1.4,0,2.1   c-0.7,0.6-1.4,0.3-2,0c-1.9-0.6-3.7-1.2-5.5-1.9c-0.6-0.2-1-0.1-1.5,0.2c-1.7,1.3-3.3,2.6-5,3.7c-0.4,0.3-1.2,0.5-1.6,0.3   c-0.4-0.2-0.6-0.9-0.7-1.4C45.3,81.3,45.3,80.2,45.3,79.1C45.3,79.1,45.3,79.1,45.3,79.1z M42.8,70.3c1.5,1,2.7,2,4,2.8   c0.8,0.5,1.1,1.2,1.1,2.1c-0.1,1.6,0,3.2,0,4.9c1.4-1,2.7-1.9,3.9-2.9c0.8-0.7,1.5-0.7,2.5-0.4c1.5,0.6,2.9,1,4.6,1.6   c-0.6-1.7-1.1-3.3-1.6-4.8c-0.3-0.8-0.2-1.5,0.3-2.2c1-1.3,2-2.6,3-4c-1.7,0-3.3-0.1-4.8,0c-1.1,0.1-1.8-0.3-2.4-1.2   c-0.8-1.3-1.7-2.5-2.7-3.9c-0.6,1.8-1.1,3.3-1.5,4.9c-0.2,0.8-0.6,1.2-1.4,1.4C46.1,69.2,44.6,69.7,42.8,70.3z"></path>	<path class="st1" d="M101.7,7.9c-0.1,0.2-0.3,0.5-0.5,0.8c-0.8,1.1-1.6,2.1-2.3,3.2c-0.2,0.4-0.3,1-0.2,1.4   c0.3,1.2,0.9,2.4,1.2,3.6c0.1,0.5,0.1,1.3-0.2,1.7c-0.3,0.3-1.1,0.3-1.6,0.2c-1.3-0.3-2.5-0.8-3.7-1.2c-0.4-0.1-0.9,0-1.3,0.2   c-1.1,0.7-2.1,1.6-3.3,2.4c-0.4,0.3-1.1,0.5-1.5,0.3c-0.4-0.2-0.7-0.9-0.7-1.4c-0.1-1.3,0.1-2.7,0-4c0-0.4-0.3-0.8-0.5-1.1   c-1.1-0.8-2.3-1.6-3.3-2.4c-0.4-0.3-0.7-0.9-0.7-1.3c0.1-0.4,0.6-0.9,1.1-1c1.2-0.5,2.5-0.9,3.7-1.2c0.7-0.2,0.9-0.5,1.1-1.1   c0.3-1.2,0.7-2.5,1.1-3.6c0.2-0.5,0.7-1,1.1-1.1c0.4-0.1,1,0.3,1.3,0.7c0.8,1,1.6,2.1,2.3,3.2c0.3,0.5,0.7,0.7,1.3,0.7   c1.3-0.1,2.7-0.1,4-0.1C101.1,6.4,101.7,6.8,101.7,7.9z M98,9.2c-0.1-0.1-0.2-0.1-0.3-0.2c-0.7,0-1.4,0-2.2,0   c-1,0.1-1.7-0.2-2.2-1.1c-0.4-0.7-0.9-1.2-1.4-2c-0.3,0.9-0.6,1.6-0.7,2.3c-0.2,1-0.7,1.6-1.7,1.8c-0.7,0.2-1.5,0.5-2.2,0.7   c1,0.8,2.3,1.4,2.8,2.4c0.5,1,0.2,2.3,0.3,3.6c0.7-0.6,1.4-1,2-1.5c0.7-0.6,1.3-0.6,2.1-0.3c0.8,0.3,1.6,0.5,2.4,0.8   c0.1,0,0.2-0.1,0.2-0.1C95.4,13.1,95.7,11,98,9.2z"></path>	<path class="st1" d="M7.4,16.7c0.7-1.9-0.4-3.1-2.1-4c-0.5-0.3-1.1-0.6-1.5-1.1c-0.4-0.4-1-1-0.9-1.4c0.1-0.5,0.8-1,1.3-1.2   c1.1-0.5,2.3-0.8,3.4-1.1c0.6-0.2,1-0.5,1.2-1.1C9.2,5.5,9.5,4.2,10,3c0.2-0.4,0.6-1,1-1.1c0.4-0.1,1,0.3,1.3,0.7   c0.9,1.1,1.6,2.2,2.4,3.3c0.2,0.3,0.7,0.5,1.1,0.6c1.3,0,2.7-0.1,4,0c0.5,0,1.2,0.3,1.4,0.6c0.2,0.4,0,1.1-0.2,1.6   c-0.6,1-1.3,2-2.1,2.9c-0.6,0.7-0.6,1.3-0.3,2.1c0.5,1.1,0.9,2.3,1.2,3.5c0.1,0.4,0,1.1-0.2,1.4c-0.3,0.3-0.9,0.4-1.4,0.3   c-1.4-0.4-2.7-0.9-4-1.3c-0.4-0.1-0.9,0-1.2,0.2c-1.1,0.7-2.1,1.6-3.2,2.3c-0.5,0.3-1.3,0.5-1.6,0.3c-0.4-0.2-0.6-1-0.7-1.5   C7.3,18.1,7.4,17.5,7.4,16.7z M9.8,16.6c0.1,0,0.2,0,0.4,0c0.7-0.5,1.3-1,2-1.5c0.6-0.5,1.2-0.6,2-0.3c0.8,0.3,1.6,0.5,2.6,0.9   c-0.3-0.9-0.5-1.7-0.8-2.5c-0.3-0.8-0.2-1.5,0.4-2.2c0.5-0.6,0.9-1.3,1.4-1.9c0-0.1,0-0.2,0-0.4c-2.9,1-4.7-0.3-5.8-2.8   c-0.4,0.9-0.7,1.7-0.9,2.4c-0.2,0.8-0.7,1.3-1.5,1.5c-0.8,0.2-1.6,0.5-2.4,0.8c0,0.1-0.1,0.2-0.1,0.2C9.6,11.9,10.6,13.8,9.8,16.6z   "></path>	<path class="st1" d="M70.2,83.2c3.4,0,6.1,2.7,6.1,6.1c0,3.4-2.7,6.1-6.1,6.1c-3.4,0-6.1-2.7-6.1-6.1C64.1,86,66.8,83.2,70.2,83.2z    M66.6,89.3c0,2.1,1.5,3.7,3.6,3.7c2.1,0,3.7-1.6,3.8-3.7c0-2-1.6-3.7-3.6-3.7C68.2,85.7,66.6,87.3,66.6,89.3z"></path>	<path class="st1" d="M38.2,94.3c0-0.8,0-1.7,0-2.5c0-0.8,0.4-1.5,1.2-1.5c0.9,0,1.3,0.6,1.2,1.4c0,0.8,0,1.6,0,2.6   c0.9,0,1.7,0,2.6,0c0.8,0,1.4,0.3,1.5,1.2c0.1,0.8-0.5,1.3-1.5,1.3c-0.8,0-1.6,0-2.6,0c0,1,0,1.8,0,2.7c0,0.8-0.4,1.4-1.2,1.4   c-0.9,0-1.3-0.6-1.3-1.4c0-0.8,0-1.7,0-2.6c-0.8,0-1.5,0-2.1,0c-1.3,0-1.9-0.4-1.9-1.2c0-0.9,0.5-1.3,1.8-1.3c0.6,0,1.2,0,1.9,0   C37.9,94.4,38,94.4,38.2,94.3z"></path>	<path class="st1" d="M41.2,6c0.5,0.3,0.8,0.5,1.1,0.7c1.8,1.7,3.6,3.5,5.4,5.2c0.6,0.6,0.8,1.2,0.2,1.9c-0.6,0.7-1.3,0.5-1.9-0.1   c-1.8-1.8-3.7-3.5-5.5-5.3c-0.3-0.3-0.5-1-0.4-1.4C40.3,6.6,40.8,6.3,41.2,6z"></path>	<path class="st1" d="M63.5,6c0.4,0.3,0.9,0.6,1,0.9c0.1,0.4,0,1.1-0.3,1.4c-1.1,1.2-2.2,2.2-3.4,3.3c-0.7,0.7-1.4,1.4-2.1,2.1   c-0.6,0.6-1.2,0.7-1.8,0.1c-0.6-0.6-0.5-1.3,0.1-1.9c1.8-1.8,3.6-3.5,5.5-5.3C62.7,6.4,63.1,6.3,63.5,6z"></path>	<path class="st1" d="M53.7,7.3c0,1.2,0,2.5,0,3.7c0,0.8-0.3,1.4-1.2,1.4c-0.9,0-1.3-0.5-1.3-1.3c-0.1-2.6-0.1-5.3-0.1-7.9   c0-0.7,0.4-1.2,1.1-1.2c0.8,0,1.3,0.5,1.3,1.3c0,1.3,0,2.7,0,4C53.6,7.3,53.6,7.3,53.7,7.3z"></path>	<path class="st1" d="M20.6,55.5c0.2-4.5,1.1-8.8,2.4-13c0.3-1,0.9-1.4,1.6-1.1c0.9,0.4,1,1,0.7,1.9c-1.3,4.4-2.3,8.8-2.1,13.5   c0,0.7,0.1,1.4,0.3,2.1c0.1,0.8,0,1.4-0.8,1.6c-0.9,0.2-1.4-0.3-1.6-1.1C20.9,58.1,20.8,56.8,20.6,55.5z"></path>	<path class="st1" d="M84.3,55.6c-0.2,1.3-0.3,2.7-0.6,4c-0.2,0.7-0.8,1-1.5,0.8c-0.7-0.2-1-0.7-0.8-1.4c0.8-3.3,0.2-6.6-0.4-9.9   c-0.4-2-1-3.9-1.5-5.9c-0.3-1,0-1.6,0.8-1.8c0.9-0.2,1.4,0.3,1.6,1C83.1,46.7,84,51.1,84.3,55.6z"></path></g></svg>