<svg xmlns="http://www.w3.org/2000/svg" fill="#000000" viewBox="0 0 48 48" width="24px" height="24px"><path d="M 14.5 5 C 9.253 5 5 9.253 5 14.5 C 5 19.747 9.253 24 14.5 24 C 15.863742 24 17.1563 23.705551 18.328125 23.1875 L 26 31.107422 L 26 41.753906 L 19.222656 43.025391 A 1.50015 1.50015 0 0 0 19.5 46 L 27.253906 46 A 1.50015 1.50015 0 0 0 27.740234 46 L 35.5 46 A 1.50015 1.50015 0 0 0 35.777344 43.025391 L 29 41.753906 L 29 31.107422 L 42.433594 17.240234 C 43.159843 16.491548 43.299195 15.370239 42.941406 14.525391 C 42.583617 13.680542 41.681531 13 40.638672 13 L 23.869141 13 C 23.148143 8.4680403 19.235016 5 14.5 5 z M 15.541016 16 L 39.458984 16 L 36.552734 19 L 25.068359 19 C 24.180359 19 23.733422 20.071125 24.357422 20.703125 L 27.066406 23.445312 C 27.649406 24.034312 27.644687 24.984406 27.054688 25.566406 C 26.762687 25.855406 26.381 26 26 26 C 25.613 26 25.227594 25.851687 24.933594 25.554688 L 18.457031 19 L 18.447266 19 L 15.541016 16 z"></path></svg>