<svg xmlns="http://www.w3.org/2000/svg" xmlns:xlink="http://www.w3.org/1999/xlink" id="Capa_1" x="0px" y="0px" viewBox="0 0 104.8 102.9" style="enable-background:new 0 0 104.8 102.9;" xml:space="preserve"><style type="text/css">	.st0{opacity:0.9;}	.st1{fill:#FFFCF7;}</style><g class="st0">	<path class="st1" d="M77.7,34.2c-1.8-1.2-3.1-2.7-3.5-4.8c-0.6-2.6-0.6-5.2,0-7.8c1-3.9,4.6-6.3,8.8-6c3.7,0.3,6.9,3.4,7.3,7.3   c0.2,1.8,0.1,3.6,0,5.4c-0.1,1.8-1.1,3.3-2.3,4.6c3,1.6,4.9,4,5.6,7.2c1.3-0.5,2.5-1,3.9-1.3c1-0.2,2-0.2,3.1-0.1   c1,0,1.6,0.8,1.5,1.9c-0.2,2.1-0.5,4.2-0.8,6.3c-0.7,5.4-1.4,10.7-2,16.1c-0.3,2.9-1.9,4.7-4.8,5.4c2,5.9,3.9,11.7,5.9,17.7   c-1.1,0.4-2,0.7-3.1,1c-0.1-0.3-0.2-0.6-0.3-0.9c-1.9-5.6-3.8-11.3-5.6-16.9c-0.2-0.7-0.5-0.9-1.2-0.9c-3.9,0-7.9,0-11.8,0   c-0.3,0-0.6,0-0.9,0c0,6,0,12,0,18c-1.1,0-2.2,0-3.3,0c0-0.3,0-0.6,0-0.9c0-6.2,0-12.3,0-18.5c0-5.1,3.5-8.6,8.6-8.6   c2,0,3.9,0,5.9,0c1.4,0,2-0.6,2-2c0-4.8,0-9.6,0-14.4c0-3.8-2.9-6.7-6.6-6.7c0,6,0,12,0,18c-1.1,0-2.2,0-3.3,0c0-5.7,0-11.3,0-17.2   c-2.2,1.4-3.3,3.2-3.3,5.6c0,2.8,0,5.5,0,8.3c0,2.2,0,4.3,0,6.6c-1.1,0-2.1,0-3.3,0c0-0.3,0-0.6,0-0.9c0-4.3,0.1-8.7,0-13   C73.8,39.5,75,36.6,77.7,34.2z M98.4,42.1c-0.4,0.1-0.7,0.1-1,0.2c-2.3,0.6-3.8,2.5-3.8,5c0,3.2,0,6.4,0,9.6c0,3-2.1,5-5.1,5   c-2.1,0-4.1,0-6.2,0c-0.5,0-1,0.1-1.5,0.2c-1.6,0.4-3.1,1.8-3.3,3.1c5.3,0,10.7,0,16,0c0.6,0,1.3-0.4,1.6-0.9   c0.4-0.6,0.5-1.3,0.6-2.1c0.5-4,1-8.1,1.5-12.1C97.8,47.5,98.1,44.9,98.4,42.1z M87.2,25.6C87.1,25.6,87.1,25.6,87.2,25.6   c-0.1-0.6,0-1.2-0.1-1.9c-0.1-2.7-2.3-4.8-5-4.8c-2.7,0-4.8,2.1-4.9,4.8c0,1.2,0,2.5,0,3.7c0.1,2.5,2,4.5,4.5,4.7   c2.5,0.2,4.7-1.4,5.2-3.9C87.1,27.4,87.1,26.5,87.2,25.6z"></path>	<path class="st1" d="M30.9,86.7c-1.2,0-2.2,0-3.3,0c0-6,0-12,0-18.1c-0.4,0-0.6,0-0.9,0c-4,0-8,0-12,0c-0.6,0-0.9,0.2-1.1,0.8   C11.8,75,9.9,80.6,8.1,86.3c-0.1,0.3-0.2,0.5-0.3,0.9c-1-0.3-2-0.7-3.1-1c2-5.9,3.9-11.7,5.9-17.6c-0.3-0.1-0.6-0.2-0.8-0.3   c-2.3-0.7-3.6-2.3-3.9-4.7c-1-7.4-1.9-14.9-2.8-22.3c-0.2-1.8,0.4-2.5,2.1-2.5c2.8,0,3.2,0.1,6.2,1.7c0.7-3.3,2.5-5.8,5.6-7.4   c-3.2-3.5-2.9-7.6-2-11.6c0.9-3.9,5-6.3,8.9-5.8c4,0.6,7,3.9,7.1,8c0,1.2,0,2.4,0,3.6c-0.1,2.6-1.1,4.7-3.2,6.4   c-0.2,0.2-0.4,0.3-0.7,0.5c1.8,1.5,3,3.2,3.5,5.4c0.2,0.7,0.3,1.4,0.3,2.2c0,4.9,0,9.7,0,14.6c0,0.1,0,0.3,0,0.5   c-1.1,0-2.1,0-3.3,0c0-0.4,0-0.7,0-1c0-4.5,0-9,0-13.6c0-2.5-1-4.4-3.2-5.9c0,5.8,0,11.4,0,17.1c-1.1,0-2.2,0-3.3,0c0-6,0-12,0-18   c-2.6-0.3-5.5,1.8-6.3,4.5c-0.2,0.7-0.3,1.6-0.3,2.3c0,4.7,0,9.3,0,14c0,1.6,0.6,2.1,2.1,2.1c1.9,0,3.9,0,5.8,0   c5.1,0,8.6,3.5,8.6,8.6c0,6.2,0,12.3,0,18.5C30.9,86,30.9,86.3,30.9,86.7z M6.4,42.2c0.2,1.6,0.4,3,0.6,4.5   c0.7,5.4,1.3,10.8,2,16.2c0.2,1.7,1,2.3,2.7,2.3c4.9,0,9.7,0,14.6,0c0.3,0,0.6,0,1,0c-0.2-0.4-0.3-0.6-0.4-0.9   c-1-1.6-2.5-2.4-4.3-2.4c-2.1,0-4.2,0-6.3,0c-3.1,0-5.2-2-5.2-5.2c0-3,0-6,0-9.1c0-0.5,0-1.1-0.1-1.6C10.7,43.9,8.7,42.3,6.4,42.2z    M27.7,25.7C27.7,25.7,27.6,25.7,27.7,25.7c-0.1-0.7,0-1.4-0.1-2c-0.1-2.5-2.1-4.4-4.6-4.6s-4.8,1.4-5.2,3.9   c-0.2,1.7-0.2,3.5,0,5.2c0.3,2.4,2.4,4,4.7,4c2.3,0,4.4-1.5,4.9-3.8C27.7,27.5,27.6,26.6,27.7,25.7z"></path>	<path class="st1" d="M58.6,32.7c3.8,1.7,5.5,4.6,5.4,8.6c0,1.9,0,3.8,0,5.8c-1.1,0-2.2,0-3.3,0c0-2.2,0-4.3,0-6.4   c0-1.7-0.7-3.1-2.1-4.2c-1.3-1-2.8-1-4.5-0.9c0,3.8,0,7.6,0,11.5c-1.2,0-2.2,0-3.3,0c0-3.8,0-7.6,0-11.4c-3.7-0.8-6.6,1.5-6.6,5.2   c0,2,0,4.1,0,6.2c-1.1,0-2.2,0-3.4,0c0.1-2.8,0-5.6,0.3-8.3c0.4-2.9,2.4-4.8,5.1-6c-0.1-0.2-0.2-0.4-0.4-0.6   c-0.8-1.1-1.5-2.4-1.5-3.8c-0.1-2.1-0.2-4.3,0.2-6.4c0.8-4.1,4.7-6.7,8.9-6.3c3.9,0.4,7.1,3.7,7.3,7.7c0.1,1.5,0.1,3.1,0,4.7   C60.5,29.8,59.7,31.3,58.6,32.7z M57.4,25.6C57.4,25.6,57.4,25.6,57.4,25.6c-0.1-0.6-0.1-1.2-0.1-1.8c-0.1-2.7-2.3-4.9-5-4.9   c-2.7,0-4.8,2.1-4.9,4.9c0,1.2,0,2.3,0,3.5c0,2.4,1.9,4.5,4.2,4.8c2.5,0.3,4.8-1.1,5.4-3.6C57.4,27.6,57.4,26.6,57.4,25.6z"></path>	<path class="st1" d="M70.5,50.4c0,1.1,0,2.1,0,3.2c-5.5,0-10.9,0-16.4,0c0,11,0,22,0,33c-1.1,0-2.2,0-3.3,0c0-10.9,0-21.9,0-32.9   c-5.5,0-11,0-16.5,0c0-1.1,0-2.2,0-3.3C46.4,50.4,58.4,50.4,70.5,50.4z"></path>	<path class="st1" d="M72.2,58.7c0,1.1,0,2.1,0,3.3c-1,0-2,0-2.9,0c-3.2,0-5.2,2.1-5.3,5.2c0,3.9,0,7.7,0,11.6c0,1.3-0.2,2.4-1,3.3   c-0.3,0.3-0.5,0.8-0.8,1.2c1.8,0,3.4,0,5.1,0c0-0.4,0-0.7,0-1.1c0-4.8,0-9.7,0-14.5c0-0.7,0.2-1,0.9-0.9c0.8,0.1,1.6,0,2.4,0   c0,0.4,0,0.7,0,1c0,5.6,0,11.1,0,16.7c0,1.6-0.5,2.2-2.2,2.2c-3,0-6,0-9,0c-0.8,0-1.5-0.2-1.9-0.9c-0.4-0.7-0.2-1.4,0.3-2   c0,0,0,0,0-0.1c0.9-1.4,2.2-2.7,2.7-4.2c0.5-1.6,0.1-3.4,0.1-5.1c0-2.5,0-5,0-7.6c0-4.5,3.3-7.9,7.7-8.2   C69.7,58.6,70.9,58.7,72.2,58.7z"></path>	<path class="st1" d="M34.3,66.9c0.1,0,0.2-0.1,0.3-0.1c0.9,0,1.9,0,2.8,0.1c0,0.9,0.1,1.8,0.1,2.7c0,4.2,0,8.4,0,12.6   c0,0.3,0,0.7,0,1.1c1.7,0,3.3,0,5.1,0c-0.4-0.7-0.9-1.2-1.2-1.9c-0.3-0.6-0.6-1.3-0.6-2c-0.1-4.1,0-8.2,0-12.2c0-3.3-2-5.4-5.4-5.4   c-0.9,0-1.8,0-2.8,0c0-1.1,0-2.1,0-3.2c3.5-0.3,6.8-0.2,9.4,2.7c1.4,1.6,2.1,3.4,2.1,5.5c0,4,0,8,0,12c0,0.5,0.2,1,0.4,1.4   c0.8,1.3,1.6,2.5,2.5,3.7c0.4,0.6,0.6,1.2,0.2,1.9c-0.4,0.7-1,0.9-1.7,0.9c-3.1,0-6.3,0-9.4,0c-1.2,0-1.9-0.6-1.9-1.7   c0-6,0-11.9,0-17.9C34.3,67.1,34.3,67.1,34.3,66.9z"></path></g></svg>