<svg xmlns="http://www.w3.org/2000/svg" xmlns:xlink="http://www.w3.org/1999/xlink" id="Capa_1" x="0px" y="0px" viewBox="0 0 104.8 102.9" style="enable-background:new 0 0 104.8 102.9;" xml:space="preserve"><style type="text/css">	.st0{opacity:0.9;}	.st1{fill:#FFFCF7;}</style><g class="st0">	<path class="st1" d="M55.9,81.2C47.8,96.4,28.8,100.9,15,91.6C1.7,82.7-1.6,64.8,7.7,51.7c9.5-13.4,28.8-16.1,41.8-4.8   c3.9-6.9,9.6-11.6,17.3-13.9c-0.2-0.3-0.4-0.6-0.5-0.9c-2.1-3.1-4.1-6.2-6.2-9.3c-0.8-1.2-0.8-1.8,0.1-2.9c1.7-2,3.4-4,5.1-6   c0.5-0.7,1.2-0.9,2-0.9c4.7,0,9.4,0,14.1,0c0.9,0,1.5,0.3,2.1,0.9c1.7,2,3.4,4,5,6c0.9,1.1,0.9,1.6,0.1,2.8   c-2.1,3.1-4.2,6.3-6.3,9.4c-0.2,0.2-0.3,0.5-0.5,0.8c9.6,3.1,16.2,9.2,19.2,18.9c2.4,7.7,1.5,15.1-2.4,22.1   C90.1,89.1,69.3,93,55.9,81.2z M31.7,50.7C20.1,50.7,12,60,13.4,70.5c1.1,8.3,8.2,14.8,16.5,15c8.6,0.3,16.2-5.6,17.8-13.9   c0.2-1.1,0.1-2.1-0.1-3.2c-0.6-2.3-0.9-4.7-1.3-7c-0.1-0.7-0.3-1.4-0.6-2C42.3,53.7,37.2,51,31.7,50.7z M91.6,60   c-0.1-0.9-0.1-1.8-0.3-2.6c-1.2-8.3-8.3-14.5-16.8-14.6c-8.3-0.1-15.7,6-17.1,14.2c-0.1,0.7,0,1.4,0.2,2.1c0.8,2.6,1.3,5.3,1.5,8   c0,0.6,0.2,1.2,0.5,1.7c3.9,6.7,11.9,10,19.3,7.9C86.3,74.6,91.5,67.8,91.6,60z M77.3,39.7c11.3,1.6,18.8,12.4,17.4,23.1   c-1.3,9.6-9.1,17-19,17.8c-9.4,0.8-18.4-5.4-21.1-14.7c-1.4-4.7-1.2-9.3,0.8-13.7c3-7,8.4-11,15.9-12.4c-0.7-1-1.4-1.9-1.9-2.8   c-0.4-0.8-1-0.9-1.8-0.6C55.3,39.7,47.7,52,50,64.6c2.5,13.6,15.8,22.6,29.2,19.7c18.4-3.9,26-25.7,14-40.1   c-3.4-4.1-7.7-6.7-12.8-8c-0.2-0.1-0.7,0-0.8,0.2C78.8,37.4,78.1,38.5,77.3,39.7z M46.6,54.8c0.4-1.4,0.7-2.7,1.1-3.9   c0.2-0.6,0.1-1-0.4-1.4c-5.9-5.1-12.7-7.3-20.5-6.1C13.3,45.5,4,58,5.9,71.6c2.2,15.3,17.5,25,32.2,20.4   c6.6-2.1,11.6-6.3,14.8-12.5c0.1-0.3,0.3-0.8,0.2-0.9c-0.9-1.3-1.9-2.5-2.8-3.7c-3.2,9.1-11.9,14.8-21.5,14   c-8.9-0.8-16.5-7.4-18.3-16.1c-1.9-8.9,2-17.9,9.8-22.4C28.1,45.6,39.4,46.4,46.6,54.8z M64.7,19.7c6.4,0,12.7,0,19.1,0   c-1-1.1-1.8-2.1-2.7-3.1c-0.1-0.2-0.5-0.2-0.7-0.2c-4.1,0-8.2,0-12.4,0c-0.3,0-0.7,0.1-0.8,0.3C66.4,17.7,65.7,18.7,64.7,19.7z    M71.2,23.2c1,3.8,2,7.5,3,11.3c0.1,0,0.1,0,0.2,0c1-3.7,2-7.4,3-11.2C75.3,23.2,73.3,23.2,71.2,23.2z M69.8,31.5   c0,0,0.1,0,0.1-0.1c-0.7-2.6-1.4-5.3-2.1-7.9c0-0.1-0.2-0.3-0.3-0.3c-1,0-2.1,0-3.3,0C66.2,26,68,28.8,69.8,31.5z M84.4,23.1   c-1.1,0-1.9,0-2.8,0c-0.6,0-0.8,0.2-0.9,0.8c-0.6,2.3-1.2,4.6-1.8,6.9c-0.1,0.2-0.1,0.4-0.1,0.6c0,0,0.1,0,0.1,0.1   C80.6,28.7,82.4,26,84.4,23.1z"></path>	<path class="st1" d="M49.1,23.1c-0.9,0-1.7-0.6-1.7-1.5c0-3-2.4-5.2-5.2-5.2c-0.9,0-1.5-0.7-1.5-1.6c0-0.8,0.5-1.5,1.3-1.7   c0.5-0.1,1-0.1,1.5-0.2c2.2-0.5,3.7-2.4,3.9-4.6C47.5,7.1,48,6.4,49,6.5c1,0,1.6,0.7,1.7,1.9c0.2,2.7,2,4.5,4.7,4.7   c1.2,0.1,1.9,0.7,1.9,1.7c0,1-0.7,1.6-1.9,1.7c-2.6,0.2-4.5,2.1-4.7,4.7C50.6,22.4,50,23.1,49.1,23.1z M49,13.2   c-0.5,0.5-1,1.1-1.5,1.5c0.5,0.5,1,1.1,1.3,1.4c0.6-0.5,1.2-1,1.7-1.4C50.1,14.3,49.6,13.8,49,13.2z"></path>	<path class="st1" d="M95.8,11.5c0-1.1,0-2.2,0-3.3c1.1,0,2.1,0,3.2,0c0,1.1,0,2.1,0,3.3c1.2,0,2.2,0,3.3,0c0,1.1,0,2.2,0,3.4   c-1.1,0-2.1,0-3.2,0l0,0c-0.1-1.1-0.1-2.2-0.2-3.4C97.9,11.4,96.8,11.4,95.8,11.5L95.8,11.5z"></path>	<path class="st1" d="M95.8,14.8c-1.1,0-2.2,0-3.3,0c0-1.1,0-2.2,0-3.4c1.1,0,2.2,0,3.3,0l0,0C95.7,12.6,95.7,13.7,95.8,14.8   L95.8,14.8z"></path>	<path class="st1" d="M99.1,14.8c0,1.1-0.1,2.1-0.1,3.2c-1.1,0-2.1,0-3.2,0c0-1.1,0-2.2,0-3.2l0,0C96.9,14.8,98,14.8,99.1,14.8   L99.1,14.8z"></path>	<path class="st1" d="M5.8,36.5c-0.1-1.1-0.1-2.2-0.2-3.4c1.2,0,2.2,0,3.3,0c0,1.2,0,2.3,0,3.4l0,0C7.9,36.5,6.9,36.5,5.8,36.5   L5.8,36.5z"></path>	<path class="st1" d="M9,39.7c0,1.1,0,2.2,0,3.4c-1.1,0-2.1,0-3.3,0c0.1-1.2,0.1-2.3,0.2-3.4l0,0C6.9,39.7,7.9,39.7,9,39.7L9,39.7z"></path>	<path class="st1" d="M9,36.5c1.1,0,2.2,0,3.3,0c0,1,0,2.1,0,3.1c-1.1,0-2.2,0-3.3,0l0,0C9,38.6,9,37.6,9,36.5L9,36.5z"></path>	<path class="st1" d="M5.8,39.7c-1.1,0-2.2,0-3.4,0c0-1,0-2.1,0-3.2c1.1,0,2.3,0,3.4,0l0,0C5.8,37.6,5.8,38.6,5.8,39.7L5.8,39.7z"></path></g></svg>