<svg xmlns="http://www.w3.org/2000/svg" fill="#000000" viewBox="0 0 50 50" width="50px" height="50px"><path d="M 25 2 C 12.318 2 2 12.317 2 25 C 2 37.683 12.318 48 25 48 C 37.682 48 48 37.683 48 25 C 48 12.317 37.682 2 25 2 z M 14.800781 11 L 17.005859 11 A 1.0001 1.0001 0 0 0 17 11.099609 L 17 19 A 1.0001 1.0001 0 1 0 19 19 L 19 11.099609 A 1.0001 1.0001 0 0 0 18.996094 11 L 19.800781 11 L 21.005859 11 A 1.0001 1.0001 0 0 0 21 11.099609 L 21 19 A 1.0001 1.0001 0 1 0 23 19 L 23 11.099609 A 1.0001 1.0001 0 0 0 22.996094 11 L 25.099609 11 C 25.099609 11 26 15.7 26 19 C 26 24.7 21.699219 23.8 21.699219 26 C 21.699219 28.2 23 30.2 23 35 C 23 39.8 21.3 41 20 41 C 18.7 41 17 40.1 17 35 C 17 29.9 18.300781 28.2 18.300781 26 C 18.300781 23.8 14 24.6 14 19 C 14 14 14.800781 11 14.800781 11 z M 30 11 C 35.1 13.5 36 17.999609 36 20.599609 C 36 24.999609 33 27.1 33 30 C 33 31.7 34 33 34 36 C 34 39 33.5 41 32 41 C 30.5 41 30 39.8 30 35 L 30 11 z"></path></svg>