<svg xmlns="http://www.w3.org/2000/svg" xmlns:xlink="http://www.w3.org/1999/xlink" id="Capa_1" x="0px" y="0px" viewBox="0 0 104.8 102.9" style="enable-background:new 0 0 104.8 102.9;" xml:space="preserve"><style type="text/css">	.st0{opacity:0.9;}	.st1{fill:#FFFCF7;}</style><g class="st0">	<path class="st1" d="M72,52.7c0.4,0,0.7,0,1,0c2.5,0,5,0,7.5,0c3,0,4.8,1.9,4.8,4.8c0,0.7,0,1.4-0.1,2.1c-0.4,2.2-2.2,3.7-4.5,3.7   c-4.4,0-8.9,0-13.3,0c-2.7,0-5.4,0-8.2,0c-0.3,0-0.6,0-1.1,0c0,0.4,0,0.8,0,1.1c0,11.5,0,23.1,0,34.6c0,1.7-0.5,2.2-2.1,2.2   c-2.4,0-4.9,0-7.3,0c-1.5,0-2-0.5-2-2c0-11.6,0-23.2,0-34.7c0-0.4,0-0.7,0-1.2c-0.4,0-0.7,0-1.1,0c-7,0-14,0-21.1,0   c-3.3,0-5.1-1.7-5.1-5.1c0-0.6,0-1.3,0.1-1.9c0.4-2.2,2.2-3.6,4.5-3.6c2.5,0,5.1,0,7.6,0c0.3,0,0.6,0,0.9,0   c1.3-11,7.3-17.3,18.2-19.2c0-1,0-2,0-3c0-1.2,0.6-1.8,1.6-1.8c1,0,1.6,0.7,1.6,1.9c0,1,0,2.1,0,3.1c5,0.5,9.2,2.5,12.7,6.1   C70.1,43.3,71.8,47.7,72,52.7z M68.8,52.7c0.4-5-3.2-11.1-8.3-13.8c-6-3.2-12-2.9-17.6,1c-4.4,3.1-6.6,7.4-6.9,12.8   C47,52.7,57.9,52.7,68.8,52.7z M52.4,55.9c-7,0-14,0-21.1,0c-2.4,0-4.7,0-7.1,0c-1.1,0-1.5,0.5-1.6,1.6c0,0.2,0,0.5,0,0.7   c0,1.8,0.3,2.1,2.1,2.1c18.4,0,36.8,0,55.3,0c0.2,0,0.4,0,0.5,0c1.1,0,1.5-0.5,1.6-1.6c0-0.3,0-0.6,0-0.9c0-1.6-0.4-1.9-1.9-1.9   C71,55.9,61.7,55.9,52.4,55.9z M49.9,63.4c0,11.6,0,23.2,0,34.7c1.7,0,3.4,0,5,0c0-11.6,0-23.1,0-34.7   C53.2,63.4,51.6,63.4,49.9,63.4z"></path>	<path class="st1" d="M36.2,77.5c0.8,2.6,1.7,5,2.5,7.4c1,3,2,6.1,3,9.1c0.8,2.6-0.3,5-2.7,5.8c-2.4,0.8-4.7-0.5-5.6-3   c-2-6.1-4-12.1-6-18.2c-0.1-0.4-0.3-0.7-0.4-1.1c-2.1,0-4.2,0-6.2,0c-0.2,0-0.6,0.4-0.7,0.7C18,84.5,16,90.7,13.9,96.9   c-0.7,2.2-2.7,3.5-4.7,3.2c-2.9-0.4-4.5-3.1-3.6-5.9c1.3-4,2.6-7.9,3.9-11.9c0.5-1.5,1-3.1,1.6-4.8c-0.8,0-1.4,0-2.1,0   c-3.3,0-5.4-2.9-4.3-6C7.3,64.3,8.5,56.9,8,49.3c-0.1-1.7-0.4-3.4-0.8-5.1c-0.3-1.2-0.9-2.4-1.7-3.4c-1.9-2.7-0.9-6.2,2.1-7   c1.6-0.5,3-0.1,4.3,1.1c2.3,2.1,3.4,4.9,4.1,7.8c1.2,4.7,1.3,9.6,0.8,14.4c-0.3,3.2-0.9,6.3-1.5,9.5c-0.2,1.5,0.3,2.3,1.9,2.3   c6.7,0,13.4,0,20.1,0c2.2,0,3.8,1.1,4.5,3c1,2.8-1.1,5.7-4.2,5.8C37.1,77.5,36.7,77.5,36.2,77.5z M23.1,74.4c4.6,0,9.1,0,13.7,0   c0.3,0,0.6,0,0.9,0c0.6-0.1,1.1-0.5,1.1-1.2c0-0.7-0.4-1.1-1.1-1.3c-0.3,0-0.5,0-0.8,0c-6.7,0-13.4,0-20.1,0   c-3.1,0-5.2-2.7-4.6-5.8c0.5-2.8,1.1-5.6,1.4-8.5c0.5-4.7,0.5-9.3-0.6-13.9c-0.5-2.3-1.3-4.5-3-6.3c-0.7-0.8-1.4-0.9-2-0.4   c-0.5,0.5-0.5,1.1,0.1,2c0.6,0.9,1.2,1.8,1.6,2.8c1,2.5,1.4,5.1,1.5,7.7c0.5,7.8-0.7,15.4-3.4,22.7c-0.5,1.5-0.1,2.1,1.5,2.1   C13.9,74.4,18.5,74.4,23.1,74.4z M17,77.5c-0.6,0-1.1,0-1.5,0c-0.8-0.1-1.2,0.2-1.4,1c-1.2,3.7-2.4,7.4-3.6,11   c-0.6,1.9-1.3,3.8-1.9,5.6c-0.3,0.8,0.1,1.5,0.8,1.7c0.7,0.2,1.3-0.1,1.6-0.9c0.1-0.1,0.1-0.3,0.1-0.4c1.5-4.7,3.1-9.3,4.6-14   C16.1,80.3,16.5,79,17,77.5z M30.4,77.5c0,0.2,0,0.4,0.1,0.5c2,6,3.9,11.9,5.9,17.9c0.3,0.9,0.8,1.1,1.5,0.9   c0.7-0.2,1.1-0.9,0.8-1.7C36.8,89.5,34.9,83.8,33,78c-0.1-0.2-0.4-0.5-0.6-0.5C31.8,77.5,31.1,77.5,30.4,77.5z"></path>	<path class="st1" d="M93.8,77.5c0.8,2.4,1.5,4.7,2.3,6.9c1.1,3.2,2.1,6.4,3.2,9.6c0.8,2.6-0.3,5-2.6,5.8c-2.4,0.8-4.8-0.4-5.7-3   c-2.1-6.2-4.1-12.3-6.1-18.5c-0.2-0.6-0.5-0.8-1.1-0.8c-1.5,0-3.1,0.1-4.6,0c-1-0.1-1.3,0.3-1.6,1.2c-2,6.1-4,12.1-6,18.2   c-0.8,2.5-3.2,3.8-5.6,2.9c-2.4-0.8-3.5-3.2-2.7-5.7c1.7-5.2,3.4-10.4,5.2-15.6c0.1-0.3,0.2-0.6,0.3-1c-0.7-0.1-1.4-0.1-2.1-0.2   c-2.4-0.4-3.8-2.4-3.7-4.7c0.2-2.2,2-3.9,4.4-3.9c6.7,0,13.3,0,20,0c2.1,0,2.6-0.6,2.1-2.7c-1.3-5.9-1.9-11.8-1.4-17.8   c0.3-3.4,0.8-6.8,2.5-9.9c0.7-1.3,1.7-2.5,2.7-3.6c1.3-1.4,3.5-1.5,5.2-0.6c1.7,1,2.3,2.8,1.8,4.8c-0.1,0.4-0.2,0.9-0.5,1.2   c-1.9,3-2.3,6.4-2.6,9.8c-0.5,7.4,0.5,14.5,3,21.5c1.2,3.2-0.9,6.1-4.3,6.1C95.2,77.5,94.5,77.5,93.8,77.5z M81.8,74.4   c4.7,0,9.4,0,14,0c1.3,0,1.8-0.7,1.3-1.9c-1.8-4.9-2.9-9.9-3.2-15c-0.3-4.4-0.2-8.8,0.8-13.2c0.4-1.9,1.1-3.7,2.1-5.4   c0.3-0.6,0.7-1.3,0-1.8c-0.6-0.5-1.3-0.4-1.9,0.5c-0.7,1-1.4,2-1.9,3.1c-1.4,3.2-1.8,6.6-1.9,10c-0.2,5.3,0.5,10.5,1.6,15.6   c0.6,2.8-1.2,5.4-4,5.7c-1.3,0.1-2.5,0.1-3.8,0.1c-5.7,0-11.4,0-17.1-0.1c-0.3,0-0.6-0.1-0.8,0.1c-0.4,0.3-0.9,0.7-0.9,1.1   c0,0.4,0.5,0.9,0.8,1.2c0.2,0.2,0.6,0.1,0.9,0.1C72.5,74.4,77.1,74.4,81.8,74.4z M88,77.5c0,0.2,0,0.4,0.1,0.5   c2,6,3.9,11.9,5.9,17.9c0.3,0.8,0.9,1.2,1.6,0.9c0.7-0.2,1-0.9,0.7-1.7c-1.9-5.7-3.8-11.4-5.7-17.1c-0.1-0.2-0.4-0.5-0.6-0.5   C89.3,77.5,88.7,77.5,88,77.5z M74.5,77.5c-0.6,0-1.2,0.1-1.7,0c-0.7-0.1-1,0.2-1.2,0.9c-1.2,3.7-2.4,7.3-3.6,11   c-0.6,1.9-1.3,3.9-1.9,5.8c-0.1,0.4,0.1,1.1,0.4,1.4c0.2,0.3,0.9,0.3,1.3,0.2c0.4-0.2,0.7-0.7,0.8-1.2c1.9-5.7,3.8-11.4,5.7-17.1   C74.3,78.2,74.4,77.9,74.5,77.5z"></path>	<path class="st1" d="M79.3,6.2c0.4,3.5,0.9,7,1.3,10.4c0.1,0.8,0.1,1.6-0.7,2c-0.7,0.5-1.4,0.2-2.1-0.2c-1-0.6-2-1.2-3.2-1.9   c-0.9,0.9-1.8,1.8-2.6,2.7c-0.5,0.5-1.1,0.8-1.8,0.6c-0.8-0.3-1-0.9-1.1-1.7c-0.4-2.9-0.7-5.9-1.1-8.9c-2.2,0.5-4.3,1-6.5,1.5   c0.2,1.7,0.4,3.3,0.6,4.9c0.1,1.1,0.3,2.3,0.4,3.4c0.1,0.7-0.1,1.4-0.7,1.8c-0.6,0.4-1.2,0.3-1.8-0.1c-1.1-0.7-2.2-1.3-3.4-2   c-0.9,0.9-1.8,1.8-2.6,2.8c-0.5,0.5-1.1,0.8-1.8,0.6c-0.7-0.3-1-0.9-1.1-1.6c-0.3-2.6-0.6-5.1-1-7.7c-2.2,0.3-4.4,0.6-6.6,0.9   c0.2,2,0.5,3.8,0.7,5.7c0.1,0.7,0.2,1.4,0.3,2c0.1,0.7,0,1.4-0.7,1.8c-0.7,0.4-1.3,0.3-1.9-0.1c-1.1-0.6-2.1-1.3-3.3-2   c-0.9,0.9-1.8,1.8-2.6,2.7c-0.5,0.5-1.1,0.9-1.8,0.6c-0.8-0.3-1-0.9-1.1-1.6c-0.3-2.5-0.6-5-0.9-7.5c0-0.2-0.1-0.5-0.1-0.6   c-2.2,0-4.4,0-6.6,0c0,0.4,0,0.6,0,0.9c0.3,2.5,0.7,5,1,7.6c0,0.3,0.1,0.6,0.1,0.9c0,1.4-1.1,2.2-2.4,1.5c-1.2-0.6-2.3-1.3-3.6-2.1   c-0.8,0.8-1.6,1.7-2.3,2.5c-0.6,0.6-1.1,1.2-2.1,0.8c-0.9-0.3-1-1.1-1.1-1.9c-0.4-3.2-0.8-6.5-1.2-9.7c-0.1-0.5-0.3-0.7-0.8-0.7   c-1.4-0.1-2.8-0.1-4.2-0.3c-1-0.1-1.6-0.8-1.6-1.7c0.1-0.9,0.7-1.5,1.8-1.5c2,0.1,4,0.3,5.9,0.4c23.1,1.2,45.5-2.2,67.4-9.5   c0.3-0.1,0.6-0.2,0.8-0.3c1-0.3,1.8,0.1,2.1,1c0.3,0.9-0.1,1.7-1.1,2c-1.3,0.5-2.7,0.9-4,1.3C79.7,6,79.5,6.1,79.3,6.2z M17.5,21.8   c0.1,0.1,0.2,0.1,0.3,0.2c0.3-0.4,0.6-0.9,1-1.2c0.9-0.9,1.4-0.9,2.4-0.3c0.5,0.3,0.9,0.5,1.6,0.9c-0.3-2.3-0.6-4.4-0.8-6.5   c-1.8,0-3.5,0-5.3,0C16.9,17.1,17.2,19.4,17.5,21.8z M76.2,7.1c-1.6,0.5-3.2,0.9-4.6,1.3c-0.2,0.1-0.5,0.4-0.4,0.6   c0.2,2,0.5,3.9,0.8,6.2c1.5-2.5,3.2-2.6,5.3-0.7C76.8,11.9,76.5,9.5,76.2,7.1z M59,16.4c-0.2-1.6-0.4-3.3-0.6-5   c-1.8,0.3-3.5,0.6-5.2,0.9c0.2,1.6,0.4,3.2,0.6,4.7c0.9-0.6,1.6-1.5,2.4-1.6C57,15.4,58,16.1,59,16.4z M35.7,19.4   c0.1,0.1,0.2,0.1,0.3,0.2c0.3-0.4,0.6-0.9,1-1.3c0.8-0.9,1.4-0.9,2.4-0.3c0.5,0.3,0.9,0.5,1.5,0.9c-0.2-1.8-0.4-3.3-0.6-4.9   c-1.8,0.1-3.5,0.3-5.3,0.4C35.2,16.2,35.4,17.8,35.7,19.4z"></path>	<path class="st1" d="M52.4,40.8c0,0.8-0.5,1.4-1.4,1.5c-2.9,0.4-5.2,1.7-7.1,4c-0.7,0.8-1.6,0.9-2.3,0.3c-0.7-0.6-0.8-1.5-0.1-2.3   c2.4-2.8,5.4-4.5,9-5C51.6,39.1,52.4,39.9,52.4,40.8z"></path></g></svg>